<svg height='100px' width='100px'  fill="#E60000" xmlns="http://www.w3.org/2000/svg" xmlns:xlink="http://www.w3.org/1999/xlink" version="1.1" viewBox="0 0 96 96" x="0px" y="0px"><path d="M70.132 70.772c-13.5-0.072-30.108-9.164-33.020-34.54-10.392 7.316-16.928 18.496-22.776 28.54-4.584 7.88-8.548 14.688-13.34 17.748-0.78 0.5-1.116 1.476-0.804 2.356 0.308 0.876 1.2 1.428 2.112 1.316 14.844-1.724 22.916-5.060 26.952-7.388v5.752c0 1.104 0.9 2 2 2h12c1.104 0 2-0.896 2-2v-7.62c3.824-0.584 6.5-0.492 8-0.336v7.956c0 1.104 0.9 2 2 2h14.532c0.612 0 1.192-0.276 1.572-0.752 0.38-0.484 0.52-1.108 0.38-1.704-0.544-2.272-1.748-7.388-1.608-13.328z" fill="#E60000"></path><path d="M72.344 33.356c0 1.136-0.921 2.056-2.056 2.056s-2.056-0.921-2.056-2.056c0-1.136 0.921-2.056 2.056-2.056s2.056 0.921 2.056 2.056z" fill="#E60000"></path><path d="M94.972 39.42c-1.916-1.18-3.624-2.428-5.18-3.792 2.12-6.348 3.604-15.976 2.46-21.748-0.168-0.864-0.888-1.516-1.764-1.604-0.9-0.088-1.708 0.412-2.044 1.228-1.632 3.936-4.36 7.848-7.472 10.772-3.368-3.548-5.552-6.476-5.856-12.932-0.052-1.068-0.924-1.904-2-1.904-15.308 0-25.472 7.908-31.984 24.884-0.112 0.296-0.156 0.616-0.12 0.924 2.456 23.264 17.308 31.524 29.276 31.524 7.124 0 13.752-2.872 18.656-8.092 0.584-0.608 0.708-1.524 0.324-2.272-1.476-2.9-2.056-5.128-2.264-6.636 1.672-0.328 3.44-0.164 5 0.484 0.516 0.216 1.092 0.204 1.6-0.028 0.504-0.232 0.892-0.668 1.072-1.196 0.832-2.564 1.252-5.22 1.252-7.904-0.004-0.696-0.36-1.34-0.956-1.708zM70.288 39.412c-3.336 0-6.052-2.716-6.052-6.056 0-3.336 2.716-6.056 6.052-6.056s6.056 2.716 6.056 6.056c-0.004 3.34-2.72 6.056-6.056 6.056z" fill="#E60000"></path></svg>